<svg id="visual" viewBox="0 0 900 600" width="900" height="600" xmlns="http://www.w3.org/2000/svg" xmlns:xlink="http://www.w3.org/1999/xlink" version="1.1"><g stroke-width="1" stroke-linejoin="bevel"><path d="M453 300L406.7 285L429 325Z" fill="#03080d" stroke="#03080d"></path><path d="M429 325L498.3 325L453 300Z" fill="#070e14" stroke="#070e14"></path><path d="M498.3 325L497.3 249L453 300Z" fill="#12161e" stroke="#12161e"></path><path d="M453 300L497.3 249L406.7 285Z" fill="#0a1016" stroke="#0a1016"></path><path d="M406.7 285L347.4 332L429 325Z" fill="#0a1016" stroke="#0a1016"></path><path d="M515.6 387L527.3 369L498.3 325Z" fill="#070e14" stroke="#070e14"></path><path d="M354.7 244L337.4 293L406.7 285Z" fill="#0d1219" stroke="#0d1219"></path><path d="M406.7 285L337.4 293L347.4 332Z" fill="#141721" stroke="#141721"></path><path d="M410 182L354.7 244L406.7 285Z" fill="#181a26" stroke="#181a26"></path><path d="M391 410L406.7 411L429 325Z" fill="#181a26" stroke="#181a26"></path><path d="M347.4 332L391 410L429 325Z" fill="#12161e" stroke="#12161e"></path><path d="M497.3 249L410 182L406.7 285Z" fill="#181a26" stroke="#181a26"></path><path d="M515.6 387L498.3 325L429 325Z" fill="#161923" stroke="#161923"></path><path d="M498.3 325L556.6 263L497.3 249Z" fill="#0d1219" stroke="#0d1219"></path><path d="M500 414L515.6 387L429 325Z" fill="#12161e" stroke="#12161e"></path><path d="M527.3 369L556.6 263L498.3 325Z" fill="#010508" stroke="#010508"></path><path d="M497.3 249L477 173L410 182Z" fill="#010508" stroke="#010508"></path><path d="M406.7 411L500 414L429 325Z" fill="#141721" stroke="#141721"></path><path d="M515.6 387L530.3 420L527.3 369Z" fill="#0f141c" stroke="#0f141c"></path><path d="M519.6 194L477 173L497.3 249Z" fill="#0d1219" stroke="#0d1219"></path><path d="M253.1 355L347.7 410L347.4 332Z" fill="#070e14" stroke="#070e14"></path><path d="M347.4 332L347.7 410L391 410Z" fill="#0f141c" stroke="#0f141c"></path><path d="M376.7 484L429.7 476L406.7 411Z" fill="#03080d" stroke="#03080d"></path><path d="M533.6 481L530.3 420L500 414Z" fill="#181a26" stroke="#181a26"></path><path d="M556.6 263L519.6 194L497.3 249Z" fill="#0a1016" stroke="#0a1016"></path><path d="M519.6 194L495 173L477 173Z" fill="#0f141c" stroke="#0f141c"></path><path d="M410 182L338.7 182L354.7 244Z" fill="#010508" stroke="#010508"></path><path d="M259.4 223L246.9 332L337.4 293Z" fill="#12161e" stroke="#12161e"></path><path d="M381.7 157L338.7 182L410 182Z" fill="#0a1016" stroke="#0a1016"></path><path d="M422.7 75L410 182L477 173Z" fill="#050b10" stroke="#050b10"></path><path d="M422.7 75L381.7 157L410 182Z" fill="#03080d" stroke="#03080d"></path><path d="M452.3 479L500 414L406.7 411Z" fill="#12161e" stroke="#12161e"></path><path d="M500 414L530.3 420L515.6 387Z" fill="#070e14" stroke="#070e14"></path><path d="M527.3 369L584.6 267L556.6 263Z" fill="#050b10" stroke="#050b10"></path><path d="M651.9 335L584.6 267L527.3 369Z" fill="#0a1016" stroke="#0a1016"></path><path d="M556.6 263L541.3 171L519.6 194Z" fill="#010508" stroke="#010508"></path><path d="M519.6 194L541.3 171L495 173Z" fill="#03080d" stroke="#03080d"></path><path d="M495 173L532.3 114L477 173Z" fill="#0f141c" stroke="#0f141c"></path><path d="M584.6 267L541.3 171L556.6 263Z" fill="#0a1016" stroke="#0a1016"></path><path d="M376.7 484L406.7 411L391 410Z" fill="#03080d" stroke="#03080d"></path><path d="M429.7 476L452.3 479L406.7 411Z" fill="#181a26" stroke="#181a26"></path><path d="M246.9 332L347.4 332L337.4 293Z" fill="#161923" stroke="#161923"></path><path d="M246.9 332L253.1 355L347.4 332Z" fill="#010508" stroke="#010508"></path><path d="M347.7 410L376.7 484L391 410Z" fill="#03080d" stroke="#03080d"></path><path d="M259.4 223L337.4 293L354.7 244Z" fill="#050b10" stroke="#050b10"></path><path d="M281.4 157L259.4 223L338.7 182Z" fill="#141721" stroke="#141721"></path><path d="M338.7 182L259.4 223L354.7 244Z" fill="#070e14" stroke="#070e14"></path><path d="M541.3 478L585.9 404L530.3 420Z" fill="#12161e" stroke="#12161e"></path><path d="M530.3 420L585.9 404L527.3 369Z" fill="#070e14" stroke="#070e14"></path><path d="M341.4 492L376.7 484L347.7 410Z" fill="#03080d" stroke="#03080d"></path><path d="M429.7 476L386.4 513L452.3 479Z" fill="#0f141c" stroke="#0f141c"></path><path d="M289.4 122L281.4 157L338.7 182Z" fill="#0a1016" stroke="#0a1016"></path><path d="M523.6 563L533.6 481L452.3 479Z" fill="#070e14" stroke="#070e14"></path><path d="M452.3 479L533.6 481L500 414Z" fill="#0f141c" stroke="#0f141c"></path><path d="M272.4 467L341.4 492L347.7 410Z" fill="#0f141c" stroke="#0f141c"></path><path d="M376.7 484L386.4 513L429.7 476Z" fill="#0d1219" stroke="#0d1219"></path><path d="M533.6 481L541.3 478L530.3 420Z" fill="#141721" stroke="#141721"></path><path d="M587.6 93L532.3 114L541.3 171Z" fill="#141721" stroke="#141721"></path><path d="M541.3 171L532.3 114L495 173Z" fill="#0f141c" stroke="#0f141c"></path><path d="M381.7 157L289.4 122L338.7 182Z" fill="#181a26" stroke="#181a26"></path><path d="M341.4 492L386.4 513L376.7 484Z" fill="#0a1016" stroke="#0a1016"></path><path d="M651.9 335L632.9 223L584.6 267Z" fill="#070e14" stroke="#070e14"></path><path d="M584.6 267L632.9 223L541.3 171Z" fill="#050b10" stroke="#050b10"></path><path d="M179.9 302L207.1 290L174.6 251Z" fill="#0f141c" stroke="#0f141c"></path><path d="M259.4 223L207.1 290L246.9 332Z" fill="#050b10" stroke="#050b10"></path><path d="M189.1 388L233.9 412L253.1 355Z" fill="#141721" stroke="#141721"></path><path d="M253.1 355L233.9 412L347.7 410Z" fill="#050b10" stroke="#050b10"></path><path d="M189.1 388L253.1 355L246.9 332Z" fill="#0a1016" stroke="#0a1016"></path><path d="M532.3 114L422.7 75L477 173Z" fill="#010508" stroke="#010508"></path><path d="M292.1 112L289.4 122L381.7 157Z" fill="#03080d" stroke="#03080d"></path><path d="M174.6 251L207.1 290L259.4 223Z" fill="#0d1219" stroke="#0d1219"></path><path d="M635.6 395L651.9 335L585.9 404Z" fill="#070e14" stroke="#070e14"></path><path d="M585.9 404L651.9 335L527.3 369Z" fill="#12161e" stroke="#12161e"></path><path d="M233.9 412L272.4 467L347.7 410Z" fill="#141721" stroke="#141721"></path><path d="M341.4 492L319.7 600L386.4 513Z" fill="#0d1219" stroke="#0d1219"></path><path d="M589.9 487L635.6 395L585.9 404Z" fill="#141721" stroke="#141721"></path><path d="M402 57L292.1 112L381.7 157Z" fill="#181a26" stroke="#181a26"></path><path d="M174.6 251L259.4 223L193.1 191Z" fill="#070e14" stroke="#070e14"></path><path d="M458 0L402 57L422.7 75Z" fill="#050b10" stroke="#050b10"></path><path d="M422.7 75L402 57L381.7 157Z" fill="#141721" stroke="#141721"></path><path d="M635.6 395L665.1 364L651.9 335Z" fill="#0f141c" stroke="#0f141c"></path><path d="M647.1 152L645.1 151L632.9 223Z" fill="#050b10" stroke="#050b10"></path><path d="M225.9 98L281.4 157L289.4 122Z" fill="#141721" stroke="#141721"></path><path d="M207.1 290L179.9 302L246.9 332Z" fill="#0f141c" stroke="#0f141c"></path><path d="M575.9 546L589.9 487L541.3 478Z" fill="#161923" stroke="#161923"></path><path d="M541.3 478L589.9 487L585.9 404Z" fill="#03080d" stroke="#03080d"></path><path d="M635.6 395L706.4 394L665.1 364Z" fill="#181a26" stroke="#181a26"></path><path d="M575.9 546L541.3 478L533.6 481Z" fill="#0f141c" stroke="#0f141c"></path><path d="M179.9 302L189.1 388L246.9 332Z" fill="#12161e" stroke="#12161e"></path><path d="M233.9 412L213.9 438L272.4 467Z" fill="#0d1219" stroke="#0d1219"></path><path d="M189.1 388L213.9 438L233.9 412Z" fill="#010508" stroke="#010508"></path><path d="M274.1 61L272.4 97L292.1 112Z" fill="#050b10" stroke="#050b10"></path><path d="M292.1 112L272.4 97L289.4 122Z" fill="#0d1219" stroke="#0d1219"></path><path d="M193.1 191L259.4 223L281.4 157Z" fill="#0d1219" stroke="#0d1219"></path><path d="M179.6 156L193.1 191L281.4 157Z" fill="#010508" stroke="#010508"></path><path d="M645.1 151L587.6 93L541.3 171Z" fill="#141721" stroke="#141721"></path><path d="M532.3 114L458 0L422.7 75Z" fill="#161923" stroke="#161923"></path><path d="M647.1 152L632.9 223L676.9 176Z" fill="#03080d" stroke="#03080d"></path><path d="M632.9 223L645.1 151L541.3 171Z" fill="#141721" stroke="#141721"></path><path d="M716.4 239L632.9 223L651.9 335Z" fill="#010508" stroke="#010508"></path><path d="M645.1 151L674.9 121L587.6 93Z" fill="#181a26" stroke="#181a26"></path><path d="M168.9 539L235.1 490L213.9 438Z" fill="#141721" stroke="#141721"></path><path d="M213.9 438L235.1 490L272.4 467Z" fill="#12161e" stroke="#12161e"></path><path d="M272.4 467L257.1 530L341.4 492Z" fill="#070e14" stroke="#070e14"></path><path d="M706.4 394L697.1 333L665.1 364Z" fill="#0f141c" stroke="#0f141c"></path><path d="M665.1 364L697.1 333L651.9 335Z" fill="#070e14" stroke="#070e14"></path><path d="M608.6 44L578.3 71L587.6 93Z" fill="#12161e" stroke="#12161e"></path><path d="M587.6 93L578.3 71L532.3 114Z" fill="#070e14" stroke="#070e14"></path><path d="M716.4 239L676.9 176L632.9 223Z" fill="#03080d" stroke="#03080d"></path><path d="M647.1 152L674.9 121L645.1 151Z" fill="#0a1016" stroke="#0a1016"></path><path d="M511 577L523.6 563L452.3 479Z" fill="#12161e" stroke="#12161e"></path><path d="M511 577L452.3 479L386.4 513Z" fill="#181a26" stroke="#181a26"></path><path d="M306.1 28L274.1 61L292.1 112Z" fill="#0f141c" stroke="#0f141c"></path><path d="M272.4 97L225.9 98L289.4 122Z" fill="#0a1016" stroke="#0a1016"></path><path d="M679.1 590L673.9 442L589.9 487Z" fill="#010508" stroke="#010508"></path><path d="M589.9 487L673.9 442L635.6 395Z" fill="#050b10" stroke="#050b10"></path><path d="M274.1 61L225.9 98L272.4 97Z" fill="#161923" stroke="#161923"></path><path d="M225.9 98L179.6 156L281.4 157Z" fill="#12161e" stroke="#12161e"></path><path d="M193.1 191L145.9 199L174.6 251Z" fill="#0a1016" stroke="#0a1016"></path><path d="M235.1 490L257.1 530L272.4 467Z" fill="#161923" stroke="#161923"></path><path d="M523.6 563L575.9 546L533.6 481Z" fill="#12161e" stroke="#12161e"></path><path d="M497 600L511 577L386.4 513Z" fill="#141721" stroke="#141721"></path><path d="M523.6 563L518.3 600L575.9 546Z" fill="#0f141c" stroke="#0f141c"></path><path d="M673.9 442L706.4 394L635.6 395Z" fill="#03080d" stroke="#03080d"></path><path d="M697.1 333L716.4 239L651.9 335Z" fill="#12161e" stroke="#12161e"></path><path d="M728.1 241L716.4 239L737.4 256Z" fill="#010508" stroke="#010508"></path><path d="M366.7 0L306.1 28L402 57Z" fill="#0d1219" stroke="#0d1219"></path><path d="M402 57L306.1 28L292.1 112Z" fill="#141721" stroke="#141721"></path><path d="M274.1 61L174.6 26L225.9 98Z" fill="#12161e" stroke="#12161e"></path><path d="M179.6 156L145.9 199L193.1 191Z" fill="#181a26" stroke="#181a26"></path><path d="M119.6 281L134.9 374L179.9 302Z" fill="#141721" stroke="#141721"></path><path d="M179.9 302L134.9 374L189.1 388Z" fill="#141721" stroke="#141721"></path><path d="M578.3 71L458 0L532.3 114Z" fill="#050b10" stroke="#050b10"></path><path d="M119.6 281L179.9 302L174.6 251Z" fill="#050b10" stroke="#050b10"></path><path d="M189.1 388L142.6 405L213.9 438Z" fill="#0d1219" stroke="#0d1219"></path><path d="M168.9 539L256.4 600L257.1 530Z" fill="#12161e" stroke="#12161e"></path><path d="M134.9 374L142.6 405L189.1 388Z" fill="#03080d" stroke="#03080d"></path><path d="M709.4 129L674.9 121L676.9 176Z" fill="#050b10" stroke="#050b10"></path><path d="M676.9 176L674.9 121L647.1 152Z" fill="#12161e" stroke="#12161e"></path><path d="M578.3 71L573.3 0L458 0Z" fill="#141721" stroke="#141721"></path><path d="M458 0L366.7 0L402 57Z" fill="#141721" stroke="#141721"></path><path d="M737.4 256L716.4 239L697.1 333Z" fill="#050b10" stroke="#050b10"></path><path d="M716.4 239L728.1 241L676.9 176Z" fill="#141721" stroke="#141721"></path><path d="M319.7 600L497 600L386.4 513Z" fill="#141721" stroke="#141721"></path><path d="M511 577L518.3 600L523.6 563Z" fill="#010508" stroke="#010508"></path><path d="M112.3 233L119.6 281L174.6 251Z" fill="#12161e" stroke="#12161e"></path><path d="M773.7 271L737.4 256L697.1 333Z" fill="#0d1219" stroke="#0d1219"></path><path d="M728.1 241L709.4 129L676.9 176Z" fill="#010508" stroke="#010508"></path><path d="M497 600L515.6 600L511 577Z" fill="#181a26" stroke="#181a26"></path><path d="M674.9 121L608.6 44L587.6 93Z" fill="#141721" stroke="#141721"></path><path d="M515.6 600L518.3 600L511 577Z" fill="#0f141c" stroke="#0f141c"></path><path d="M366.7 0L326.4 0L306.1 28Z" fill="#010508" stroke="#010508"></path><path d="M306.1 28L289.1 0L274.1 61Z" fill="#010508" stroke="#010508"></path><path d="M298.1 600L319.7 600L257.1 530Z" fill="#0f141c" stroke="#0f141c"></path><path d="M257.1 530L319.7 600L341.4 492Z" fill="#0a1016" stroke="#0a1016"></path><path d="M57.3 150L112.3 233L145.9 199Z" fill="#0d1219" stroke="#0d1219"></path><path d="M145.9 199L112.3 233L174.6 251Z" fill="#070e14" stroke="#070e14"></path><path d="M130.9 136L145.9 199L179.6 156Z" fill="#070e14" stroke="#070e14"></path><path d="M256.4 600L298.1 600L257.1 530Z" fill="#0f141c" stroke="#0f141c"></path><path d="M801.7 160L709.4 129L728.1 241Z" fill="#0a1016" stroke="#0a1016"></path><path d="M674.9 121L652.9 30L608.6 44Z" fill="#050b10" stroke="#050b10"></path><path d="M326.4 0L289.1 0L306.1 28Z" fill="#161923" stroke="#161923"></path><path d="M225.9 98L130.9 136L179.6 156Z" fill="#0f141c" stroke="#0f141c"></path><path d="M587.9 0L573.3 0L608.6 44Z" fill="#12161e" stroke="#12161e"></path><path d="M608.6 44L573.3 0L578.3 71Z" fill="#010508" stroke="#010508"></path><path d="M757.1 466L749.1 388L706.4 394Z" fill="#070e14" stroke="#070e14"></path><path d="M706.4 394L749.1 388L697.1 333Z" fill="#141721" stroke="#141721"></path><path d="M757.1 466L706.4 394L673.9 442Z" fill="#070e14" stroke="#070e14"></path><path d="M757.1 466L673.9 442L731.4 579Z" fill="#12161e" stroke="#12161e"></path><path d="M134.9 374L113.6 425L142.6 405Z" fill="#0d1219" stroke="#0d1219"></path><path d="M142.6 405L113.6 425L213.9 438Z" fill="#0d1219" stroke="#0d1219"></path><path d="M42.3 384L113.6 425L134.9 374Z" fill="#181a26" stroke="#181a26"></path><path d="M42.3 384L134.9 374L119.6 281Z" fill="#0d1219" stroke="#0d1219"></path><path d="M174.6 26L130.9 136L225.9 98Z" fill="#141721" stroke="#141721"></path><path d="M612.6 0L587.9 0L608.6 44Z" fill="#010508" stroke="#010508"></path><path d="M168.9 539L257.1 530L235.1 490Z" fill="#070e14" stroke="#070e14"></path><path d="M797.7 302L773.7 271L697.1 333Z" fill="#181a26" stroke="#181a26"></path><path d="M737.4 256L773.7 271L728.1 241Z" fill="#141721" stroke="#141721"></path><path d="M740.1 75L652.9 30L674.9 121Z" fill="#161923" stroke="#161923"></path><path d="M652.9 30L612.6 0L608.6 44Z" fill="#0d1219" stroke="#0d1219"></path><path d="M105.6 498L168.9 539L213.9 438Z" fill="#161923" stroke="#161923"></path><path d="M57.3 150L76.3 244L112.3 233Z" fill="#0d1219" stroke="#0d1219"></path><path d="M112.3 233L76.3 244L119.6 281Z" fill="#181a26" stroke="#181a26"></path><path d="M679.1 590L589.9 487L575.9 546Z" fill="#0f141c" stroke="#0f141c"></path><path d="M749.1 388L797.7 302L697.1 333Z" fill="#070e14" stroke="#070e14"></path><path d="M518.3 600L642.9 600L575.9 546Z" fill="#03080d" stroke="#03080d"></path><path d="M791.7 417L797.7 302L749.1 388Z" fill="#161923" stroke="#161923"></path><path d="M801.7 160L740.1 75L709.4 129Z" fill="#181a26" stroke="#181a26"></path><path d="M187.9 0L174.6 26L274.1 61Z" fill="#050b10" stroke="#050b10"></path><path d="M130.9 136L57.3 150L145.9 199Z" fill="#0d1219" stroke="#0d1219"></path><path d="M113.6 425L105.6 498L213.9 438Z" fill="#12161e" stroke="#12161e"></path><path d="M168.9 539L162.9 600L256.4 600Z" fill="#050b10" stroke="#050b10"></path><path d="M0.3 458L105.6 498L113.6 425Z" fill="#0f141c" stroke="#0f141c"></path><path d="M900 320L807.7 288L797.7 302Z" fill="#03080d" stroke="#03080d"></path><path d="M797.7 302L807.7 288L773.7 271Z" fill="#161923" stroke="#161923"></path><path d="M736.4 43L662.1 0L652.9 30Z" fill="#050b10" stroke="#050b10"></path><path d="M740.1 75L674.9 121L709.4 129Z" fill="#12161e" stroke="#12161e"></path><path d="M652.9 30L662.1 0L612.6 0Z" fill="#03080d" stroke="#03080d"></path><path d="M105.6 498L117.3 522L168.9 539Z" fill="#0d1219" stroke="#0d1219"></path><path d="M757.1 466L791.7 417L749.1 388Z" fill="#181a26" stroke="#181a26"></path><path d="M289.1 0L187.9 0L274.1 61Z" fill="#161923" stroke="#161923"></path><path d="M642.9 600L679.1 590L575.9 546Z" fill="#141721" stroke="#141721"></path><path d="M757.1 466L784.4 452L791.7 417Z" fill="#070e14" stroke="#070e14"></path><path d="M801.7 160L728.1 241L773.7 271Z" fill="#03080d" stroke="#03080d"></path><path d="M112.3 49L130.9 136L174.6 26Z" fill="#181a26" stroke="#181a26"></path><path d="M112.3 49L85.6 118L130.9 136Z" fill="#0f141c" stroke="#0f141c"></path><path d="M800.4 451L784.4 452L757.1 466Z" fill="#03080d" stroke="#03080d"></path><path d="M105.6 498L112.3 532L117.3 522Z" fill="#070e14" stroke="#070e14"></path><path d="M117.3 522L112.3 532L168.9 539Z" fill="#0a1016" stroke="#0a1016"></path><path d="M0 282L119.6 281L76.3 244Z" fill="#12161e" stroke="#12161e"></path><path d="M0 332L42.3 384L119.6 281Z" fill="#0a1016" stroke="#0a1016"></path><path d="M0 560L97.6 592L112.3 532Z" fill="#141721" stroke="#141721"></path><path d="M807.7 288L801.7 160L773.7 271Z" fill="#141721" stroke="#141721"></path><path d="M33.3 135L57.3 150L85.6 118Z" fill="#0d1219" stroke="#0d1219"></path><path d="M85.6 118L57.3 150L130.9 136Z" fill="#050b10" stroke="#050b10"></path><path d="M123.6 600L162.9 600L168.9 539Z" fill="#0a1016" stroke="#0a1016"></path><path d="M753.4 0L736.4 43L807.7 54Z" fill="#050b10" stroke="#050b10"></path><path d="M740.1 75L736.4 43L652.9 30Z" fill="#12161e" stroke="#12161e"></path><path d="M805.7 600L800.4 451L757.1 466Z" fill="#03080d" stroke="#03080d"></path><path d="M784.4 452L800.4 451L791.7 417Z" fill="#0a1016" stroke="#0a1016"></path><path d="M791.7 417L900 320L797.7 302Z" fill="#03080d" stroke="#03080d"></path><path d="M148.6 0L112.3 49L174.6 26Z" fill="#161923" stroke="#161923"></path><path d="M642.9 600L703.4 600L679.1 590Z" fill="#161923" stroke="#161923"></path><path d="M679.1 590L731.4 579L673.9 442Z" fill="#070e14" stroke="#070e14"></path><path d="M187.9 0L148.6 0L174.6 26Z" fill="#181a26" stroke="#181a26"></path><path d="M703.4 600L731.4 579L679.1 590Z" fill="#0d1219" stroke="#0d1219"></path><path d="M0 95L33.3 135L85.6 118Z" fill="#141721" stroke="#141721"></path><path d="M0 195L0 282L76.3 244Z" fill="#161923" stroke="#161923"></path><path d="M0 95L85.6 118L112.3 49Z" fill="#010508" stroke="#010508"></path><path d="M97.6 592L123.6 600L112.3 532Z" fill="#12161e" stroke="#12161e"></path><path d="M112.3 532L123.6 600L168.9 539Z" fill="#0d1219" stroke="#0d1219"></path><path d="M0 195L76.3 244L57.3 150Z" fill="#03080d" stroke="#03080d"></path><path d="M0 560L112.3 532L105.6 498Z" fill="#0a1016" stroke="#0a1016"></path><path d="M0 282L0 332L119.6 281Z" fill="#070e14" stroke="#070e14"></path><path d="M0 166L0 195L57.3 150Z" fill="#141721" stroke="#141721"></path><path d="M0 449L113.6 425L42.3 384Z" fill="#12161e" stroke="#12161e"></path><path d="M736.4 43L753.4 0L662.1 0Z" fill="#0a1016" stroke="#0a1016"></path><path d="M807.7 54L736.4 43L740.1 75Z" fill="#050b10" stroke="#050b10"></path><path d="M97.6 592L102.3 600L123.6 600Z" fill="#070e14" stroke="#070e14"></path><path d="M0 332L0 417L42.3 384Z" fill="#161923" stroke="#161923"></path><path d="M0 95L0 166L33.3 135Z" fill="#141721" stroke="#141721"></path><path d="M33.3 135L0 166L57.3 150Z" fill="#12161e" stroke="#12161e"></path><path d="M821.4 64L740.1 75L801.7 160Z" fill="#010508" stroke="#010508"></path><path d="M821.4 64L807.7 54L740.1 75Z" fill="#010508" stroke="#010508"></path><path d="M0 417L0 449L42.3 384Z" fill="#010508" stroke="#010508"></path><path d="M97.6 592L0 600L102.3 600Z" fill="#181a26" stroke="#181a26"></path><path d="M0 449L0.3 458L113.6 425Z" fill="#0d1219" stroke="#0d1219"></path><path d="M703.4 600L774.1 600L731.4 579Z" fill="#12161e" stroke="#12161e"></path><path d="M731.4 579L774.1 600L757.1 466Z" fill="#03080d" stroke="#03080d"></path><path d="M841.7 46L821.4 64L900 177Z" fill="#070e14" stroke="#070e14"></path><path d="M807.7 54L853.7 0L753.4 0Z" fill="#010508" stroke="#010508"></path><path d="M900 180L801.7 160L807.7 288Z" fill="#070e14" stroke="#070e14"></path><path d="M900 415L791.7 417L900 423Z" fill="#12161e" stroke="#12161e"></path><path d="M900 415L900 320L791.7 417Z" fill="#050b10" stroke="#050b10"></path><path d="M900 320L900 266L807.7 288Z" fill="#141721" stroke="#141721"></path><path d="M17.3 0L0 95L112.3 49Z" fill="#12161e" stroke="#12161e"></path><path d="M774.1 600L805.7 600L757.1 466Z" fill="#010508" stroke="#010508"></path><path d="M900 177L821.4 64L801.7 160Z" fill="#0a1016" stroke="#0a1016"></path><path d="M821.4 64L841.7 46L807.7 54Z" fill="#0d1219" stroke="#0d1219"></path><path d="M900 423L791.7 417L800.4 451Z" fill="#0d1219" stroke="#0d1219"></path><path d="M900 266L900 180L807.7 288Z" fill="#0f141c" stroke="#0f141c"></path><path d="M900 180L900 177L801.7 160Z" fill="#141721" stroke="#141721"></path><path d="M893.7 528L900 423L800.4 451Z" fill="#141721" stroke="#141721"></path><path d="M0 449L0 560L0.3 458Z" fill="#161923" stroke="#161923"></path><path d="M0.3 458L0 560L105.6 498Z" fill="#141721" stroke="#141721"></path><path d="M148.6 0L17.3 0L112.3 49Z" fill="#141721" stroke="#141721"></path><path d="M805.7 600L893.7 528L800.4 451Z" fill="#161923" stroke="#161923"></path><path d="M900 7L853.7 0L841.7 46Z" fill="#141721" stroke="#141721"></path><path d="M841.7 46L853.7 0L807.7 54Z" fill="#181a26" stroke="#181a26"></path><path d="M17.3 0L0 0L0 95Z" fill="#0a1016" stroke="#0a1016"></path><path d="M0 560L0 600L97.6 592Z" fill="#010508" stroke="#010508"></path><path d="M148.6 0L0 -4L17.3 0Z" fill="#070e14" stroke="#070e14"></path><path d="M17.3 0L0 -4L0 0Z" fill="#0d1219" stroke="#0d1219"></path><path d="M187.9 0L0 -4L148.6 0Z" fill="#03080d" stroke="#03080d"></path><path d="M289.1 0L0 -4L187.9 0Z" fill="#181a26" stroke="#181a26"></path><path d="M326.4 0L0 -4L289.1 0Z" fill="#12161e" stroke="#12161e"></path><path d="M366.7 0L0 -4L326.4 0Z" fill="#181a26" stroke="#181a26"></path><path d="M458 0L0 -4L366.7 0Z" fill="#181a26" stroke="#181a26"></path><path d="M573.3 0L0 -4L458 0Z" fill="#12161e" stroke="#12161e"></path><path d="M587.9 0L0 -4L573.3 0Z" fill="#161923" stroke="#161923"></path><path d="M612.6 0L0 -4L587.9 0Z" fill="#12161e" stroke="#12161e"></path><path d="M662.1 0L0 -4L612.6 0Z" fill="#0d1219" stroke="#0d1219"></path><path d="M753.4 0L0 -4L662.1 0Z" fill="#161923" stroke="#161923"></path><path d="M853.7 0L0 -4L753.4 0Z" fill="#0d1219" stroke="#0d1219"></path><path d="M900 542L900 538L893.7 528Z" fill="#0f141c" stroke="#0f141c"></path><path d="M893.7 528L900 538L900 423Z" fill="#0d1219" stroke="#0d1219"></path><path d="M875.7 599L900 542L893.7 528Z" fill="#070e14" stroke="#070e14"></path><path d="M805.7 600L875.7 599L893.7 528Z" fill="#050b10" stroke="#050b10"></path><path d="M900 177L900 7L841.7 46Z" fill="#181a26" stroke="#181a26"></path><path d="M900 7L900 0L853.7 0Z" fill="#070e14" stroke="#070e14"></path><path d="M853.7 0L900 0L0 -4Z" fill="#141721" stroke="#141721"></path><path d="M805.7 600L900 600L875.7 599Z" fill="#03080d" stroke="#03080d"></path><path d="M875.7 599L900 600L900 542Z" fill="#181a26" stroke="#181a26"></path></g></svg>